<svg width="93" height="108" viewBox="0 0 93 108" fill="none" xmlns="http://www.w3.org/2000/svg">
<g filter="url(#filter0_d_434_113)">
<path d="M58.1833 44.245C58.1533 44.22 58.1133 44.21 58.0833 44.185L38.7997 26.7312C37.7147 25.7563 35.9549 25.7563 34.8699 26.7312C34.8599 26.7412 34.8549 26.7512 34.8499 26.7612C34.5872 26.9781 34.3751 27.2498 34.2283 27.5572C34.0815 27.8646 34.0036 28.2004 34 28.5411V63.4537C34.0056 63.8006 34.0873 64.142 34.2394 64.4539C34.3914 64.7658 34.6101 65.0405 34.8799 65.2586L34.8699 65.2685C35.4158 65.7404 36.1133 66 36.8348 66C37.5563 66 38.2538 65.7404 38.7997 65.2685L58.1833 47.7748C58.4386 47.557 58.6436 47.2864 58.7842 46.9817C58.9248 46.677 58.9976 46.3454 58.9976 46.0099C58.9976 45.6743 58.9248 45.3427 58.7842 45.0381C58.6436 44.7334 58.4386 44.4628 58.1833 44.245Z" fill="#F5F5F5"/>
</g>
<defs>
<filter id="filter0_d_434_113" x="0" y="0" width="92.9976" height="108" filterUnits="userSpaceOnUse" color-interpolation-filters="sRGB">
<feFlood flood-opacity="0" result="BackgroundImageFix"/>
<feColorMatrix in="SourceAlpha" type="matrix" values="0 0 0 0 0 0 0 0 0 0 0 0 0 0 0 0 0 0 127 0" result="hardAlpha"/>
<feMorphology radius="4" operator="dilate" in="SourceAlpha" result="effect1_dropShadow_434_113"/>
<feOffset dy="8"/>
<feGaussianBlur stdDeviation="15"/>
<feComposite in2="hardAlpha" operator="out"/>
<feColorMatrix type="matrix" values="0 0 0 0 0 0 0 0 0 0 0 0 0 0 0 0 0 0 0.1 0"/>
<feBlend mode="normal" in2="BackgroundImageFix" result="effect1_dropShadow_434_113"/>
<feBlend mode="normal" in="SourceGraphic" in2="effect1_dropShadow_434_113" result="shape"/>
</filter>
</defs>
</svg>
