<svg width="377" height="377" viewBox="0 0 377 377" fill="none" xmlns="http://www.w3.org/2000/svg">
<path d="M230.419 113.393C207.269 100.279 179.342 98.6415 154.819 108.962C130.294 119.283 111.94 140.394 105.132 166.119C98.3269 191.842 103.835 219.269 120.046 240.369C136.254 261.471 161.335 273.86 187.945 273.913C191.201 273.91 194.452 273.726 197.686 273.363C215.699 271.332 232.605 263.65 245.984 251.421C259.362 239.192 268.526 223.043 272.164 205.285C275.799 187.523 273.718 169.066 266.221 152.56C258.721 136.053 246.19 122.345 230.423 113.394L230.419 113.393ZM250.64 200.879C247.459 216.337 238.67 230.067 225.966 239.428C213.263 248.789 197.543 253.117 181.837 251.574C166.131 250.034 151.553 242.734 140.911 231.08C130.269 219.429 124.318 204.25 124.203 188.472C124.088 172.69 129.819 157.425 140.291 145.62C150.762 133.815 165.232 126.304 180.913 124.534C183.321 124.267 185.74 124.13 188.161 124.127C207.336 124.155 225.483 132.796 237.592 147.662C249.701 162.528 254.492 182.048 250.639 200.832L250.64 200.879Z" fill="#5D6D8C" fill-opacity="0.5"/>
<path d="M366.498 152.522L337.135 148.866L323.909 115.234L342.921 92.5664V92.5692C344.665 90.4905 345.58 87.8426 345.488 85.1306C345.393 82.4185 344.302 79.8376 342.419 77.8842L303.752 37.8063C301.872 35.8587 299.338 34.673 296.635 34.4776C293.934 34.2851 291.258 35.0942 289.118 36.7572L265.714 54.935L232.583 40.5179L229.994 11.0286L229.997 11.0314C229.76 8.32767 228.532 5.80817 226.545 3.95553C224.561 2.10567 221.964 1.05374 219.249 1.00632L163.579 0.00188623C160.864 -0.0483373 158.227 0.905886 156.177 2.68603C154.126 4.46339 152.806 6.94103 152.474 9.6336L148.819 38.9972L115.233 52.2229L92.569 33.2107C90.4902 31.4669 87.8424 30.5517 85.1304 30.6437C82.4183 30.7386 79.8374 31.8296 77.884 33.713L37.8061 72.3794C35.8474 74.2516 34.6504 76.7823 34.444 79.4832C34.2403 82.184 35.0411 84.8682 36.6928 87.0139L54.935 110.418L40.5207 143.501L11.0314 146.09C8.32767 146.325 5.80817 147.555 3.95553 149.539C2.10567 151.523 1.05374 154.12 1.00631 156.835L0.00188623 212.505C-0.0483373 215.22 0.905884 217.857 2.68603 219.908C4.46338 221.958 6.94103 223.278 9.6336 223.61L38.9972 227.265L52.22 260.895L33.2107 283.562C31.4669 285.641 30.5517 288.289 30.6437 291.001C30.7386 293.713 31.8296 296.294 33.713 298.247L72.3794 338.325C74.26 340.273 76.7935 341.459 79.4971 341.654C82.198 341.846 84.8737 341.037 87.0135 339.374L110.418 321.197L143.549 335.614L146.138 365.103L146.135 365.1C146.372 367.804 147.6 370.323 149.586 372.176C151.57 374.026 154.168 375.078 156.883 375.125L212.553 376.13H212.757C215.435 376.13 218.024 375.15 220.031 373.379C222.04 371.604 223.329 369.157 223.658 366.498L227.313 337.134L260.943 323.912L283.61 342.924V342.921C285.689 344.665 288.337 345.58 291.049 345.488C293.761 345.393 296.342 344.302 298.295 342.419L338.373 303.752C340.321 301.872 341.507 299.338 341.702 296.635C341.894 293.934 341.083 291.258 339.422 289.118L321.197 265.714L335.614 232.583L365.103 229.994L365.1 229.997C367.804 229.759 370.324 228.532 372.176 226.545C374.026 224.561 375.078 221.964 375.125 219.249L376.13 163.579C376.169 160.872 375.206 158.247 373.429 156.207C371.652 154.165 369.185 152.854 366.498 152.522ZM353.337 208.992L327.187 211.297C325.223 211.47 323.343 212.17 321.741 213.32C320.139 214.472 318.878 216.032 318.089 217.837L298.449 262.935L298.451 262.938C297.659 264.746 297.372 266.738 297.617 268.697C297.863 270.658 298.633 272.514 299.846 274.073L315.909 294.81L290.041 319.751L269.997 302.89C268.482 301.621 266.655 300.784 264.707 300.466C262.757 300.148 260.759 300.363 258.92 301.085L213.15 319.046C211.314 319.771 209.707 320.977 208.496 322.536C207.288 324.093 206.521 325.952 206.278 327.91L202.969 353.996L167.048 353.338L164.743 327.188H164.741C164.568 325.224 163.87 323.343 162.718 321.742C161.568 320.14 160.006 318.879 158.2 318.089L113.164 298.452C111.353 297.66 109.364 297.373 107.405 297.618C105.444 297.864 103.585 298.634 102.028 299.847L81.3227 315.91L56.3813 290.042L73.242 269.998C74.5115 268.483 75.3486 266.655 75.6667 264.708C75.9847 262.758 75.7699 260.76 75.0472 258.921L57.0865 213.151C56.3611 211.315 55.1557 209.708 53.596 208.497C52.0391 207.289 50.1809 206.522 48.2222 206.279L22.1365 202.97L22.7949 167.049L48.9442 164.744V164.742C50.9085 164.569 52.7891 163.871 54.3907 162.719C55.9922 161.569 57.2534 160.007 58.043 158.201L77.6802 113.165C78.4726 111.354 78.7599 109.365 78.5145 107.406C78.2689 105.445 77.4988 103.586 76.2851 102.029L60.2222 81.3237L86.0901 56.3822L106.134 73.243C107.649 74.5125 109.477 75.3495 111.425 75.6676C113.375 75.9857 115.373 75.7708 117.211 75.0482L162.981 57.0875C164.817 56.362 166.424 55.1567 167.635 53.597C168.844 52.04 169.611 50.1818 169.854 48.2231L173.163 22.1374L209.083 22.7959L211.388 48.9452H211.391C211.564 50.9095 212.262 52.79 213.414 54.3916C214.563 55.9932 216.126 57.2543 217.931 58.0439L263.029 77.684V77.6812C264.84 78.4736 266.829 78.7609 268.791 78.5154C270.749 78.2699 272.608 77.4998 274.167 76.2861L294.809 60.2232L319.75 86.0911L302.889 106.135C301.62 107.65 300.783 109.478 300.465 111.426C300.147 113.376 300.362 115.374 301.084 117.212L319.045 162.982C319.77 164.818 320.976 166.425 322.535 167.636C324.092 168.845 325.951 169.612 327.909 169.855L353.995 173.164L353.337 208.992Z" fill="#5D6D8C" fill-opacity="0.5"/>
</svg>
